<?xml version="1.0" encoding="UTF-8"?>
<svg xmlns="http://www.w3.org/2000/svg" width="150" height="40" viewBox="0 0 150 40">
  <style>
    .bg { fill: #ffffff; }
    .bd { stroke: #d0d7de; fill: none; stroke-width: 1; }
    .label { fill: #1f2328; font-family: "SF Mono", Consolas, "Liberation Mono", ui-monospace, monospace; font-size: 13px; font-weight: 500; letter-spacing: 0.02em; }
    @media (prefers-color-scheme: dark) {
      .bg { fill: #161b22; }
      .bd { stroke: #30363d; }
      .label { fill: #c9d1d9; }
    }
  </style>
  <rect class="bg" x="0" y="0" width="150" height="40" rx="8"/>
  <rect class="bd" x="0.5" y="0.5" width="149" height="39" rx="7.5"/>
  <g transform="translate(11, 11) scale(0.75)" fill="#e8702a">
    <path d="M20.447 20.452h-3.554v-5.569c0-1.328-.027-3.037-1.852-3.037-1.853 0-2.136 1.445-2.136 2.939v5.667H9.351V9h3.414v1.561h.046c.477-.9 1.637-1.85 3.37-1.85 3.601 0 4.267 2.37 4.267 5.455v6.286zM5.337 7.433a2.062 2.062 0 0 1-2.063-2.065 2.063 2.063 0 1 1 2.063 2.065zm1.782 13.019H3.555V9h3.564v11.452zM22.225 0H1.771C.792 0 0 .774 0 1.729v20.542C0 23.227.792 24 1.771 24h20.451C23.2 24 24 23.227 24 22.271V1.729C24 .774 23.2 0 22.222 0h.003z"/>
  </g>
  <text class="label" x="40" y="26">linkedin</text>
</svg>
